<svg xmlns="http://www.w3.org/2000/svg" width="24" height="22.37" viewBox="0 0 24 22.37"><path d="M31.77,26.888,41.1,35.414a2.37,2.37,0,0,0-1.276.565l-.006.006-.006.006a2.2,2.2,0,0,0-.752,1.693v7.94H35.643V42.25a2.32,2.32,0,0,0-2.34-2.3H30.226a2.321,2.321,0,0,0-2.34,2.3v3.371H24.511V37.667a2.315,2.315,0,0,0-2.037-2.279l9.3-8.5m0-1.888a1.3,1.3,0,0,0-.886.329L20.152,35.14a1.058,1.058,0,0,0-.289,1.276,1.24,1.24,0,0,0,1.154.7h1.154a.571.571,0,0,1,.592.548v8.549a1.21,1.21,0,0,0,1.25,1.154h4.371a1.21,1.21,0,0,0,1.25-1.154V42.25a.569.569,0,0,1,.591-.548H33.3a.571.571,0,0,1,.592.548v3.966a1.214,1.214,0,0,0,1.265,1.154H39.53a1.227,1.227,0,0,0,1.279-1.154V37.678a.456.456,0,0,1,.166-.385.649.649,0,0,1,.425-.151h1.084a1.262,1.262,0,0,0,1.154-.7,1.067,1.067,0,0,0-.233-1.291L32.659,25.329A1.306,1.306,0,0,0,31.77,25Z" transform="translate(-19.761 -25)"/></svg>