<svg xmlns="http://www.w3.org/2000/svg" width="16.969" height="17.627" viewBox="0 0 16.969 17.627"><defs><style>.a{fill:#0558ac;}</style></defs><path class="a" d="M18.683,15.5H13.027a.577.577,0,0,0-.566.588v6.219a.577.577,0,0,0,.566.588h5.656a.577.577,0,0,0,.566-.588V16.093A.577.577,0,0,0,18.683,15.5Zm-.566,6.219H13.592V16.68h4.525Z" transform="translate(-12.461 -14.33)"/><path class="a" d="M18.683,113.844H13.027a.577.577,0,0,0-.566.588v5.876a.577.577,0,0,0,.566.588h5.656a.577.577,0,0,0,.566-.588v-5.876A.577.577,0,0,0,18.683,113.844Zm-.566,5.876H13.592v-4.7h4.525Z" transform="translate(-12.461 -103.268)"/><path class="a" d="M117.022,113.844h-5.656a.577.577,0,0,0-.566.588v5.876a.577.577,0,0,0,.566.588h5.656a.577.577,0,0,0,.566-.588v-5.876A.577.577,0,0,0,117.022,113.844Zm-.566,5.876h-4.525v-4.7h4.525v4.7Z" transform="translate(-101.75 -103.268)"/><path class="a" d="M106.6,7.539l-4-4.155a.551.551,0,0,0-.8,0l-4,4.155a.6.6,0,0,0,0,.831l4,4.155a.551.551,0,0,0,.8,0l4-4.155A.6.6,0,0,0,106.6,7.539Zm-4.4,3.739L99,7.954l3.2-3.324,3.2,3.324Z" transform="translate(-89.795 -3.212)"/></svg>