<svg xmlns="http://www.w3.org/2000/svg" width="17.214" height="18.766" viewBox="0 0 17.214 18.766"><defs><style>.a{fill:#0558ac;}</style></defs><path class="a" d="M49.846,54.244H38.159a2.821,2.821,0,0,1-2.763-2.87V45.006a2.821,2.821,0,0,1,2.763-2.87H49.846a2.821,2.821,0,0,1,2.763,2.87v6.367A2.821,2.821,0,0,1,49.846,54.244ZM38.159,43.229a1.747,1.747,0,0,0-1.711,1.777v6.367a1.747,1.747,0,0,0,1.711,1.777H49.846a1.747,1.747,0,0,0,1.711-1.777V45.006a1.747,1.747,0,0,0-1.711-1.777Z" transform="translate(-35.396 -40.914)"/><path class="a" d="M62.15,128.774a.537.537,0,0,1-.526-.547.558.558,0,0,1,.147-.379l4.575-4.945a.517.517,0,0,1,.376-.168.508.508,0,0,1,.378.164l4.683,4.945a.562.562,0,0,1,.023.773.513.513,0,0,1-.744.024l-.03-.032-4.3-4.544-4.2,4.537a.517.517,0,0,1-.38.171Z" transform="translate(-58.173 -110.5)"/><path class="a" d="M68.07,76.139a.537.537,0,0,1-.526-.547V70.156a.527.527,0,1,1,1.052,0v5.437A.537.537,0,0,1,68.07,76.139Zm-4.432-8.362a.537.537,0,0,1-.526-.547V64.37a.527.527,0,1,1,1.052,0v2.86a.537.537,0,0,1-.526.547Zm2.863,0a.537.537,0,0,1-.526-.547V62.949a.527.527,0,1,1,1.052,0v4.282A.537.537,0,0,1,66.5,67.777Zm2.863,0a.537.537,0,0,1-.526-.547V65.16a.527.527,0,1,1,1.052,0v2.071a.537.537,0,0,1-.526.547Zm2.863,0a.537.537,0,0,1-.526-.547V61.747a.527.527,0,1,1,1.052,0v5.484a.537.537,0,0,1-.526.547Z" transform="translate(-59.466 -57.373)"/><path class="a" d="M92.868,34.335a1.221,1.221,0,1,0,1.219-1.14,1.181,1.181,0,0,0-1.219,1.14Z" transform="translate(-85.307 -33.195)"/></svg>