<svg xmlns="http://www.w3.org/2000/svg" width="50" height="45.832" viewBox="0 0 50 45.832"><defs><style>.a{fill:#fff;}</style></defs><g transform="translate(-0.752 -9.288)"><path class="a" d="M49.958,26.538a2.068,2.068,0,0,0-2.812.385l-.719.94c-.063-.328-.132-.656-.208-.977A23.04,23.04,0,0,0,1.382,37.517,23.076,23.076,0,0,0,29.141,54.493a22.682,22.682,0,0,0,11.212-6.457l.107-.095a.6.6,0,0,0,.145-.2l.1-.139a1.733,1.733,0,0,0,.24-.927A1.791,1.791,0,0,0,39.1,44.939a1.711,1.711,0,0,0-.706.17l-.114-.069-.479.5A19.131,19.131,0,1,1,42.6,27.906c.025.12.057.24.082.359l-.807-.605a2.068,2.068,0,0,0-2.812.385,1.984,1.984,0,0,0,.385,2.787l4.591,3.456c.006.006.019.013.025.019l.208.151h.038a2.245,2.245,0,0,0,1.217.208,2.012,2.012,0,0,0,1.356-.776l3.475-4.566a2,2,0,0,0-.4-2.787Z" transform="translate(0)"/><path class="a" d="M41.181,57.9h2.941V53.859h3.249V57.9H49.8v2.986H47.371v1.669a36.541,36.541,0,0,1,3.4,2.188L48.928,67.3c-.515-.489-1.029-.948-1.557-1.389V76.294H44.122V66.912a28.461,28.461,0,0,1-2.453,4.566q-.311-1.484-.969-4.2a24.339,24.339,0,0,0,3.148-6.39H41.181ZM49.5,68.712h6.5V65.976H51.027V63.241h4.966V60.588H50.546V57.852h3.529q-.973-1.4-2.045-2.718l2.48-1.484c.889.96,1.818,2.021,2.787,3.195l-1.651,1h3.108c1.029-1.478,1.938-2.867,2.714-4.172l3.048,1.21q-1.083,1.565-2.126,2.968h2.914v2.736H59.577v2.646h5.267V65.97H59.57v2.736h6.7v2.736h-6.7v4.834H55.994V71.442H49.5Z" transform="translate(-30.435 -32.501)"/></g></svg>