<svg xmlns="http://www.w3.org/2000/svg" width="37.83" height="37.83" viewBox="0 0 37.83 37.83"><defs><style>.a{fill:#fff;}</style></defs><g transform="translate(-12.869 -12.577)"><path class="a" d="M49.706,90.156H13.862a1,1,0,0,0-.993,1v1.158a.99.99,0,0,0,.993,1H49.706a1,1,0,0,0,.992-1V91.154a.99.99,0,0,0-.992-1" transform="translate(0 -60.766)"/><path class="a" d="M16.022,128.715v-9.466H12.869v11.9a2.812,2.812,0,0,0,2.813,2.813H26.53v-3.153H18.114a2.1,2.1,0,0,1-2.093-2.093" transform="translate(0 -83.554)"/><path class="a" d="M16.022,17.822a2.1,2.1,0,0,1,2.093-2.093H26.53V12.577H15.682a2.812,2.812,0,0,0-2.813,2.812v9.8h3.153V17.822"/><path class="a" d="M134.9,128.715a2.1,2.1,0,0,1-2.093,2.093H124.39v3.152h10.848a2.812,2.812,0,0,0,2.812-2.812v-11.9H134.9v9.466h0" transform="translate(-87.352 -83.554)"/><path class="a" d="M135.238,12.577H124.39v3.152h8.415a2.1,2.1,0,0,1,2.093,2.093v7.365h3.152v-9.8a2.812,2.812,0,0,0-2.812-2.812" transform="translate(-87.352)"/></g></svg>