<?xml version="1.0" standalone="no"?><!DOCTYPE svg PUBLIC "-//W3C//DTD SVG 1.1//EN" "http://www.w3.org/Graphics/SVG/1.1/DTD/svg11.dtd"><svg t="1572328277214" class="icon" viewBox="0 0 1024 1024" version="1.1" xmlns="http://www.w3.org/2000/svg" p-id="1633" xmlns:xlink="http://www.w3.org/1999/xlink" width="200" height="200"><defs><style type="text/css"></style></defs><path d="M485.052632 426.307368l-247.808-49.583157a26.947368 26.947368 0 0 1 10.563368-52.816843l264.192 52.816843 264.192-52.816843a26.947368 26.947368 0 1 1 10.563368 52.816843L538.947368 426.307368v132.149895l157.857685 263.006316a26.947368 26.947368 0 0 1-46.241685 27.755789L512 618.280421l-138.563368 230.938947a26.947368 26.947368 0 0 1-46.241685-27.701894L485.052632 558.457263V426.307368zM512 323.368421a80.842105 80.842105 0 1 1 0-161.68421 80.842105 80.842105 0 0 1 0 161.68421z m0-53.894737a26.947368 26.947368 0 1 0 0-53.894737 26.947368 26.947368 0 0 0 0 53.894737z m0 754.526316a512 512 0 1 1 0-1024 512 512 0 0 1 0 1024z m0-53.894737a458.105263 458.105263 0 1 0 0-916.210526 458.105263 458.105263 0 0 0 0 916.210526z" fill="#000000" p-id="1634"></path></svg>