<svg xmlns="http://www.w3.org/2000/svg" width="19.48" height="17.682" viewBox="0 0 19.48 17.682"><defs><style>.a{fill:none;}.b,.d{fill:#0558ac;}.c,.d{stroke:none;}</style></defs><g class="a" transform="translate(-2.98 -3.902)"><path class="c" d="M9.526,5.731a3.7,3.7,0,0,1,6.388,0l6.031,10.275a3.7,3.7,0,0,1-3.194,5.578H6.689A3.7,3.7,0,0,1,3.5,16.006Z"/><path class="d" d="M 12.7197322845459 5.402008056640625 C 11.92977237701416 5.402008056640625 11.21943187713623 5.808738708496094 10.81955242156982 6.490007400512695 L 4.788652420043945 16.76486778259277 C 4.383771896362305 17.45466804504395 4.379331588745117 18.28088760375977 4.776762008666992 18.97500801086426 C 5.174192428588867 19.66911697387695 5.888992309570312 20.08351898193359 6.688833236694336 20.08351898193359 L 18.75063323974609 20.08351898193359 C 19.55047225952148 20.08351898193359 20.26527214050293 19.66911697387695 20.6627025604248 18.97500801086426 C 21.06013298034668 18.28088760375977 21.05569267272949 17.45466804504395 20.65081214904785 16.76486778259277 L 14.61991214752197 6.490007400512695 C 14.22003269195557 5.808738708496094 13.50968265533447 5.402008056640625 12.7197322845459 5.402008056640625 M 12.7197322845459 3.902006149291992 C 13.9588451385498 3.902006149291992 15.19795703887939 4.511571884155273 15.91353225708008 5.730707168579102 L 21.94443130493164 16.00556755065918 C 23.39350128173828 18.47435760498047 21.61327171325684 21.58351707458496 18.75063323974609 21.58351707458496 L 6.688833236694336 21.58351707458496 C 3.826192855834961 21.58351707458496 2.045961380004883 18.47435760498047 3.495031356811523 16.00556755065918 L 9.525932312011719 5.730707168579102 C 10.2415075302124 4.511571884155273 11.48061943054199 3.902006149291992 12.7197322845459 3.902006149291992 Z"/></g><path class="b" d="M57.223,11.3c-.315.315-.566.5-.692.629.063-.409.283-1.2.723-2.768a9.113,9.113,0,0,0,.5-1.95.859.859,0,0,0-.252-.6c-.377-.315-1.038-.252-1.856.22A6.164,6.164,0,0,0,54.172,8.1l-.283.315.912.723.252-.22c.252-.252.44-.409.535-.535a21.933,21.933,0,0,0-1.038,4.4,1.121,1.121,0,0,0,.252.723.925.925,0,0,0,.692.283,1.946,1.946,0,0,0,.975-.315,10.486,10.486,0,0,0,1.573-1.29l.283-.283-.849-.818-.252.22ZM56.94,3.6a1.139,1.139,0,0,0-.315.849,1.1,1.1,0,0,0,.252.692.905.905,0,0,0,.66.283,1.013,1.013,0,0,0,.786-.377A1.273,1.273,0,0,0,58.67,4.2a.955.955,0,0,0-.252-.661A1.02,1.02,0,0,0,56.94,3.6Z" transform="translate(-46.482 1.298)"/></svg>