<svg xmlns="http://www.w3.org/2000/svg" width="45" height="39.056" viewBox="0 0 45 39.056"><defs><style>.a{fill:#fff;}</style></defs><path class="a" d="M40.432,0H31.18A16.335,16.335,0,0,0,22.5,2.4,16.335,16.335,0,0,0,13.824,0H4.572A4.479,4.479,0,0,0,0,4.371V32.358a4.479,4.479,0,0,0,4.57,4.371h9.252A1.568,1.568,0,0,0,14,36.72c6.414.356,7.139,1.559,7.146,1.571a1.493,1.493,0,0,0,1.316.765h.08a1.492,1.492,0,0,0,1.315-.765c.007-.012.732-1.215,7.146-1.571a1.565,1.565,0,0,0,.177.01h9.252A4.479,4.479,0,0,0,45,32.358V4.371A4.479,4.479,0,0,0,40.432,0ZM19.511,34.55a34.57,34.57,0,0,0-5.83-.687c-1.2-.056-2.365-.076-3.419-.076-2.235,0-3.944.089-4.257.107H4.572a1.574,1.574,0,0,1-1.606-1.536V4.371A1.574,1.574,0,0,1,4.572,2.836h9.252a13.632,13.632,0,0,1,5.708,1.208,11.442,11.442,0,0,1,1.406.762l.082,22.079-.03,8.084A13.4,13.4,0,0,0,19.511,34.55Zm22.527-2.192a1.574,1.574,0,0,1-1.605,1.536H39c-.461-.026-3.942-.207-7.676-.031a34.57,34.57,0,0,0-5.83.687,13.4,13.4,0,0,0-1.479.419l-.03-8.084.081-22.079a11.4,11.4,0,0,1,1.406-.762A13.634,13.634,0,0,1,31.18,2.835h9.251a1.574,1.574,0,0,1,1.606,1.536V32.358ZM17.013,12.192H7.222a1.419,1.419,0,1,0,0,2.836h9.791a1.419,1.419,0,1,0,0-2.836Zm0,8.549H7.222a1.419,1.419,0,1,0,0,2.836h9.791a1.419,1.419,0,1,0,0-2.836Zm21.063-8.549H28.285a1.419,1.419,0,1,0,0,2.836h9.791a1.419,1.419,0,1,0,0-2.836Zm0,8.549H28.285a1.419,1.419,0,1,0,0,2.836h9.791a1.419,1.419,0,1,0,0-2.836Z" transform="translate(-0.002)"/></svg>