<svg xmlns="http://www.w3.org/2000/svg" width="18" height="18.002" viewBox="0 0 18 18.002"><defs><style>.a{fill:#0558ac;}</style></defs><path class="a" d="M12.921,21.907A9,9,0,1,1,15.409,4.253a9.008,9.008,0,0,1,6.512,8.653c0,2.257-.473,3.88-1.418,4.826a2.725,2.725,0,0,1-1.909.838.437.437,0,0,1-.116-.009,2.605,2.605,0,0,1-1.739-.838,3.35,3.35,0,0,1-.937.134,3.255,3.255,0,0,1-.972-.152,11.055,11.055,0,0,1-4.068-2.533,10.927,10.927,0,0,1-2.524-4.086c-.491-1.918.357-2.658.678-2.935.027-.027.054-.045.071-.062a1.7,1.7,0,0,1,.946-.464.379.379,0,0,1,.268.1l1.463,1.463.009.009a1.5,1.5,0,0,1,0,1.543,2.231,2.231,0,0,1-.223.339c-.312.393-.6.767,1.017,2.391.865.865,1.454,1.267,1.847,1.267a.855.855,0,0,0,.535-.25,2.278,2.278,0,0,1,.339-.232,1.5,1.5,0,0,1,.767-.205,1.52,1.52,0,0,1,.776.214l.009.009L18.2,15.734c.312.312-.205,1.062-.366,1.222-.009.009-.018.027-.036.036a.825.825,0,0,0,.687.268c1.445-.285,2.15-1.713,2.15-4.371a7.761,7.761,0,0,0-5.584-7.449,7.586,7.586,0,0,0-2.15-.3A7.73,7.73,0,1,0,12.912,20.6a7.5,7.5,0,0,0,2.837-.544.647.647,0,1,1,.473,1.2,8.572,8.572,0,0,1-3.3.651Z" transform="translate(-3.921 -3.905)"/></svg>