<svg xmlns="http://www.w3.org/2000/svg" width="16.93" height="15.667" viewBox="0 0 16.93 15.667"><defs><style>.a{fill:#0558ac;}</style></defs><path class="a" d="M45.6,60.327a.631.631,0,0,0-.631-.631h-5.3a.631.631,0,1,0,0,1.262h5.3A.631.631,0,0,0,45.6,60.327Z" transform="translate(-36.091 -55.514)"/><path class="a" d="M39.664,96.2a.631.631,0,1,0,0,1.262h2.46a.631.631,0,1,0,0-1.262Z" transform="translate(-36.091 -88.715)"/><path class="a" d="M21.6,21.706a.631.631,0,0,0-.631.631v3.177a2.427,2.427,0,0,1-2.424,2.424H10.246a2.427,2.427,0,0,1-2.424-2.424V17.22A2.427,2.427,0,0,1,10.246,14.8h9.068a.631.631,0,0,0,0-1.262H10.246A3.691,3.691,0,0,0,6.56,17.22v8.294A3.691,3.691,0,0,0,10.246,29.2H18.54a3.691,3.691,0,0,0,3.686-3.686V22.337a.631.631,0,0,0-.631-.631Z" transform="translate(-6.56 -13.534)"/><path class="a" d="M87.26,31.61a.948.948,0,0,0-1.339.031l-8.655,9.065a.947.947,0,0,0,1.37,1.308l8.655-9.065a.947.947,0,0,0-.031-1.339Z" transform="translate(-70.622 -29.734)"/></svg>