<svg xmlns="http://www.w3.org/2000/svg" width="41.035" height="37.973" viewBox="0 0 41.035 37.973"><defs><style>.a{fill:#fff;}</style></defs><g transform="translate(-6.56 -13.534)"><path class="a" d="M54.939,61.226a1.529,1.529,0,0,0-1.53-1.53H40.563a1.53,1.53,0,1,0,0,3.059H53.409A1.529,1.529,0,0,0,54.939,61.226Z" transform="translate(-25.343 -36.026)"/><path class="a" d="M40.563,96.2a1.53,1.53,0,1,0,0,3.059h5.962a1.53,1.53,0,1,0,0-3.059Z" transform="translate(-25.343 -64.517)"/><path class="a" d="M43,33.34a1.529,1.529,0,0,0-1.53,1.53v7.7A5.882,5.882,0,0,1,35.6,48.447H15.5A5.881,5.881,0,0,1,9.62,42.571v-20.1A5.881,5.881,0,0,1,15.5,16.594H37.474a1.53,1.53,0,0,0,0-3.06H15.5A8.945,8.945,0,0,0,6.56,22.469v20.1A8.945,8.945,0,0,0,15.5,51.507H35.6a8.945,8.945,0,0,0,8.935-8.935v-7.7A1.529,1.529,0,0,0,43,33.34Z"/><path class="a" d="M101.861,31.982a2.3,2.3,0,0,0-3.245.075L77.639,54.028a2.295,2.295,0,0,0,3.319,3.17l20.978-21.971a2.3,2.3,0,0,0-.075-3.245Z" transform="translate(-54.976 -13.902)"/></g></svg>