<svg xmlns="http://www.w3.org/2000/svg" xmlns:xlink="http://www.w3.org/1999/xlink" width="154.95" height="167.66" viewBox="0 0 154.95 167.66"><defs><style>.a{fill:none;}.b{opacity:0.94;}.c{clip-path:url(#a);}.d{fill:url(#b);}.e{clip-path:url(#c);}.f{fill:url(#d);}.g{fill:#fff;fill-rule:evenodd;}.h{fill:#0060af;}</style><clipPath id="a"><path class="a" d="M128.229,51.09c.023-.024.044-.044.067-.067-.023.023-.044.043-.067.067m12.6-29.906c-15.779,8.63-9.7,26.748-12.534,29.839,3.814-3.931,9.9-3.782,16.853-3.63,14.452.323,32.689.635,42.223-35.785-12.681,11.349-31.774,2.367-46.543,9.576" transform="translate(-128.229 -11.608)"/></clipPath><radialGradient id="b" cx="-3.271" cy="44.887" r="83.019" gradientTransform="matrix(0.669, 0, 0, -0.669, -1.08, 74.925)" gradientUnits="userSpaceOnUse"><stop offset="0" stop-color="#fe0"/><stop offset="0.244" stop-color="#f1e000"/><stop offset="0.523" stop-color="#92be28"/><stop offset="1" stop-color="#00973d"/></radialGradient><clipPath id="c"><path class="a" d="M79.133,12.241l-21.2,12.235V73.432l21.2,12.235,21.19,12.247,21.2-12.247,21.189-12.235V45.476A44.885,44.885,0,0,1,126.11,48.1c-2.922-.005-5.644-.117-8.031-.117a27.31,27.31,0,0,0-6.289.534,6.713,6.713,0,0,0-3.47,1.836,1.884,1.884,0,0,0-.144.137l-4.82-4.792-1.147-.586-.824-.223s0,0,.01-.017a9.709,9.709,0,0,0,.132-1.04c.09-1.166.1-3.018.191-5.177.19-4.332.7-10.054,3.814-15.564a24.964,24.964,0,0,1,10-9.647l.1-.062.089-.032a31.58,31.58,0,0,1,4.617-1.8L100.323,0Z" transform="translate(-57.931)"/></clipPath><radialGradient id="d" cx="42.393" cy="48.957" r="39.652" gradientTransform="matrix(1.155, 0, 0, -1.155, -6.564, 105.495)" gradientUnits="userSpaceOnUse"><stop offset="0" stop-color="#fff"/><stop offset="0.005" stop-color="#fff"/><stop offset="0.059" stop-color="#e9f8fd"/><stop offset="0.171" stop-color="#b2e6fa"/><stop offset="0.329" stop-color="#5acaf5"/><stop offset="0.482" stop-color="#00aef0"/><stop offset="1" stop-color="#0060af"/></radialGradient></defs><g class="b" transform="translate(-5.412)"><g transform="translate(87.778 7.785)"><g class="c" transform="translate(0)"><rect class="d" width="64.642" height="43.257" transform="translate(-5.612 0.149) rotate(-3.538)"/></g></g><g transform="translate(40.633)"><g class="e"><rect class="f" width="84.785" height="97.914" transform="translate(0)"/></g></g><path class="g" d="M166.584,35.991C152.689,46.625,136.6,40.935,126.5,55.016c-7.352,10.267-.482,13.5,1.66,7.757,1.874-5.041,7.574-13.723,16.674-16.158,15.156-4.045,21.746-10.624,21.746-10.624" transform="translate(-38.792 -11.854)"/><path class="g" d="M114.9,79.726A12.683,12.683,0,1,0,102.22,67.045,12.71,12.71,0,0,0,114.9,79.726" transform="translate(-31.885 -17.904)"/><path class="g" d="M119.308,95.662l-3.736-44.545L119.308,6.58l3.737,44.538Z" transform="translate(-36.283 -2.167)"/><path class="g" d="M140.775,84.329,100.324,65.3,63.618,39.791l40.443,19.032Z" transform="translate(-19.171 -13.106)"/><path class="g" d="M110.579,64.084l-6.5,9.214L63.635,92.33l36.707-25.511Z" transform="translate(-19.176 -21.107)"/><path class="h" d="M6.146,188.159l.112-4.675v-8.748l-.112-3.954,4.069.155h9.6v-2.443l-.158-4.834h5.578l-.157,4.834v2.443h9.85l4.2-.155L39,174.736v8.748l.133,4.733H33.759l.057-.663H25.081V195.5l.157,4.582H19.661l.158-4.582v-7.942H11.285l.1.6Zm5.139-5.484h8.534V175.7H11.285ZM33.816,175.7H25.081v6.979h8.734Z" transform="translate(-0.242 -53.903)"/><path class="h" d="M76.591,165.454c-1.563,3.6-2.589,5.875-3.1,6.809l-.894,1.67h.681l-.134,3.415v17.223l.134,5.267h-4.9l.146-5.267V180.117c-.5.657-.982,1.276-1.45,1.839a23.764,23.764,0,0,1-2.385,2.343,29.72,29.72,0,0,0-2.9-5.085c.6-.409,1.371-.976,2.307-1.713a14.315,14.315,0,0,0,3.09-4.049A45.565,45.565,0,0,0,69.8,168.26a34.553,34.553,0,0,0,1.249-3.334l.568-2a28.941,28.941,0,0,0,4.974,2.526m2.888,13.892,1.729-.6V167.608l-.144-3.78H86.27l-.134,3.78v8.945a48.713,48.713,0,0,0,4.542-2.758,43.549,43.549,0,0,0,4.025-3.388,21.549,21.549,0,0,0,3.525,4.32c-.4.234-.714.419-.926.548s-1.272.832-3.178,2.1a81.789,81.789,0,0,1-7.987,4.5v11.1a1.977,1.977,0,0,0,.335,1.243c.213.279,1.351.414,3.4.4a4.749,4.749,0,0,0,3.112-.776,3.113,3.113,0,0,0,1.049-1.475,14.923,14.923,0,0,0,.245-1.5c.043-.53.078-.814.09-.853l.044-1.328q.669.369,1.573.788a15.908,15.908,0,0,0,3.57.836c-.124.719-.256,1.434-.38,2.141s-.347,1.628-.659,2.767a5.716,5.716,0,0,1-1.593,2.761,5.493,5.493,0,0,1-2.958,1.363,36.924,36.924,0,0,1-5.754.246c-2.812-.032-4.641-.356-5.511-.984-.846-.625-1.315-1.178-1.392-1.652a9.666,9.666,0,0,1-.1-1.338V184.008c-1.428.518-2.709.968-3.858,1.349a27.32,27.32,0,0,0-1.371-3.815l-.706-1.233a31.285,31.285,0,0,0,4.206-.964" transform="translate(-18.569 -53.662)"/><path class="h" d="M135.845,165.013c-.625,1.606-1.227,3.133-1.807,4.6a44.762,44.762,0,0,1-2.064,4.4h.915l-.123,2.875v18.556l.123,4.32h-4.7l.136-4.32v-15.8c-1.284,1.452-2.389,2.614-3.347,3.507-.279-.525-.612-1.137-1-1.845a16.413,16.413,0,0,0-2.051-2.66,13.379,13.379,0,0,0,2.344-1.621,15.81,15.81,0,0,0,2.775-3.691,26.3,26.3,0,0,0,2.532-5.427c.567-1.8.9-2.884.959-3.254l.279-1.41c.525.278,1.058.534,1.618.767a27.373,27.373,0,0,0,3.412,1m22.952,10.1-3.534-.1H147.59v4.676h6.547l3.277-.08v4.576l-3.277-.095H147.59v4.071h7.294l3.7-.057v4.652l-3.7-.1H147.59v2.744l.133,4.5h-4.975l.147-4.5V175.013h-1.015a44.6,44.6,0,0,1-4.507,7.157c-.335-.321-.724-.7-1.2-1.152a19.08,19.08,0,0,0-3.044-2,15.445,15.445,0,0,0,2.1-2.051,21.031,21.031,0,0,0,2.442-4.211,24.974,24.974,0,0,0,1.918-5.126c.313-1.4.512-2.385.582-2.978l.166-1.209a25.816,25.816,0,0,0,5.376,1.489,7.889,7.889,0,0,0-.347.807c-.056.156-.166.5-.345,1.056s-.6,1.827-1.284,3.809h11.534l3.534-.1Z" transform="translate(-38.375 -53.767)"/><path class="h" d="M197.7,176.227l-2.131-.1h-.978v7.05c1.661-.591,3.2-1.2,4.615-1.862-.1.834-.164,1.5-.2,2s-.042,1.019-.032,1.565l.021,1.1c-1.449.5-2.921,1.035-4.4,1.625v7.157l.156,5.272h-4.93l.155-5.228v-5.605c-1.962.684-3.914,1.429-5.833,2.233q-.619-2.324-.8-2.81l-.836-2.253a34.172,34.172,0,0,0,4.383-.822l3.088-.9v-8.517h-1.939c-.5,2.155-.893,3.6-1.149,4.328l-.724,2.09a18.218,18.218,0,0,0-2.511-1.895l-1.483-.8c.245-.613.535-1.348.858-2.214a23.6,23.6,0,0,0,.96-4.027,29.43,29.43,0,0,0,.49-4.482l.046-2c1.951.469,3.054.71,3.3.72l1.531.179-.57,3.781h1.192v-4.879l-.155-3.553h4.93l-.156,3.638V171.8h.978l2.512-.076v4.029c.289-.5.6-1.029.913-1.607a26.377,26.377,0,0,0,1.24-2.88c.5-1.355.925-2.6,1.259-3.766a27.168,27.168,0,0,0,.714-3.039l.232-1.395a33.036,33.036,0,0,0,4.853,1.334c-.247.781-.523,1.663-.826,2.632s-.469,1.521-.5,1.658l-.636,1.792h9.748l3.5-.111c-.047,2.009-.078,3.513-.078,4.518v5.124c-.011.541-.021,2.454-.056,5.738s-.09,5.672-.177,7.155a14.842,14.842,0,0,1-.613,3.646,4.209,4.209,0,0,1-2.186,2.331,15.754,15.754,0,0,1-5.364,1.272c-.114-.585-.237-1.143-.372-1.666a7.223,7.223,0,0,0-.547-1.485l-.9-1.839a8.126,8.126,0,0,0,2.587.056,3.887,3.887,0,0,0,1.718-.527,3.311,3.311,0,0,0,.881-1.292,12.082,12.082,0,0,0,.433-3.776l.1-3.718.036-4.4.055-6.8h-9.635a34.155,34.155,0,0,0,4.159,1.3c-1.36,3.8-2.308,6.361-2.844,7.718a20.248,20.248,0,0,1-2.253,4.06,29.992,29.992,0,0,1-4.137,4.538c-1.194-1.093-2.4-2.123-3.638-3.094.559-.337,1.205-.76,1.921-1.265a10.625,10.625,0,0,0,2.329-2.494,19.591,19.591,0,0,0,2.243-4.164,21.648,21.648,0,0,0,1.315-4.149l.491-2.45h-.435A63.935,63.935,0,0,1,199.716,181a16.627,16.627,0,0,0-2.432-1.642l-1.719-.811a21.141,21.141,0,0,0,2.131-2.323m16.252.488q-1.271,5.2-2.411,8.665a29.846,29.846,0,0,1-2.532,5.874,16.834,16.834,0,0,1-3.779,4.372,29.4,29.4,0,0,1-6.447,3.866,24.215,24.215,0,0,0-1.628-2.621l-1.274-1.369c.7-.222,1.531-.514,2.467-.852a15.249,15.249,0,0,0,3.626-2.22,14.441,14.441,0,0,0,3.645-4.088,24.583,24.583,0,0,0,2.4-5.72,48.379,48.379,0,0,0,1.292-5.3l.322-2.029a36.343,36.343,0,0,0,4.319,1.426" transform="translate(-58.214 -53.709)"/><path class="h" d="M7.665,235.871a2.388,2.388,0,0,0,.436,1.161,2.5,2.5,0,0,0,2.019.7,4.229,4.229,0,0,0,1.383-.192,1.31,1.31,0,0,0,1.014-1.315.966.966,0,0,0-.5-.863,5.076,5.076,0,0,0-1.561-.529l-1.229-.275A7.583,7.583,0,0,1,6.74,233.7a2.774,2.774,0,0,1-1.149-2.456,3.246,3.246,0,0,1,1.126-2.52,4.754,4.754,0,0,1,3.291-1.009,5.053,5.053,0,0,1,3.088.952,3.394,3.394,0,0,1,1.341,2.752H12.159a1.615,1.615,0,0,0-.914-1.457,3.07,3.07,0,0,0-1.406-.276,2.668,2.668,0,0,0-1.5.361,1.173,1.173,0,0,0-.557,1.037.958.958,0,0,0,.547.9,6.561,6.561,0,0,0,1.506.469l1.986.473a5.024,5.024,0,0,1,1.962.815,2.785,2.785,0,0,1,1,2.314,3.284,3.284,0,0,1-1.194,2.581,5.106,5.106,0,0,1-3.388,1.022A5.556,5.556,0,0,1,6.7,238.65a3.343,3.343,0,0,1-1.284-2.779Z" transform="translate(0 -75)"/><path class="h" d="M23.881,230.12h-2.22V228.1h2.22Zm-2.22,1h2.22v8.368h-2.22Z" transform="translate(-5.352 -75.126)"/><path class="h" d="M34.893,232.984a2.771,2.771,0,0,1,.813,2.254v5.633h-2.24v-5.089a2.41,2.41,0,0,0-.166-1.009,1.255,1.255,0,0,0-1.229-.649,1.511,1.511,0,0,0-1.515.947,3.245,3.245,0,0,0-.213,1.276v4.525h-2.2v-8.351h2.131v1.223a3.7,3.7,0,0,1,.791-.929,2.748,2.748,0,0,1,1.707-.514,3.25,3.25,0,0,1,2.118.684" transform="translate(-7.488 -76.511)"/><path class="h" d="M49.2,239.819a3.9,3.9,0,0,1-3.226,1.314,3.865,3.865,0,0,1-3.21-1.314,5.191,5.191,0,0,1,0-6.289,3.848,3.848,0,0,1,3.21-1.328A3.878,3.878,0,0,1,49.2,233.53a5.2,5.2,0,0,1,0,6.289m-1.752-1.209a3.173,3.173,0,0,0,.512-1.939,3.135,3.135,0,0,0-.512-1.936,1.946,1.946,0,0,0-2.956,0,3.121,3.121,0,0,0-.512,1.936,3.159,3.159,0,0,0,.512,1.939,1.946,1.946,0,0,0,2.956,0" transform="translate(-11.952 -76.478)"/><path class="h" d="M61.557,235.51a1.884,1.884,0,0,0-.313-.848,1.326,1.326,0,0,0-1.149-.508,1.518,1.518,0,0,0-1.517,1.105,4.48,4.48,0,0,0-.212,1.545,4.147,4.147,0,0,0,.212,1.478,1.475,1.475,0,0,0,1.481,1.048,1.308,1.308,0,0,0,1.093-.419,2.042,2.042,0,0,0,.392-1.07h2.242a3.67,3.67,0,0,1-.726,1.879,3.516,3.516,0,0,1-3.055,1.447,3.565,3.565,0,0,1-2.978-1.208,4.82,4.82,0,0,1-.959-3.105,4.925,4.925,0,0,1,1.058-3.353,3.691,3.691,0,0,1,2.912-1.2,4.358,4.358,0,0,1,2.575.71,3.321,3.321,0,0,1,1.2,2.5Z" transform="translate(-16.685 -76.511)"/><path class="h" d="M75.855,231.222a2.462,2.462,0,0,1,1.05.82,2.352,2.352,0,0,1,.412.966,11.6,11.6,0,0,1,.076,1.616v4.927h-2.24v-5.1a2.194,2.194,0,0,0-.225-1.088,1.141,1.141,0,0,0-1.125-.584,1.585,1.585,0,0,0-1.318.573,2.766,2.766,0,0,0-.445,1.665v4.539H69.855V228.261h2.186v4a2.7,2.7,0,0,1,1.105-1.019,3.072,3.072,0,0,1,1.3-.29,3.551,3.551,0,0,1,1.4.272" transform="translate(-21.225 -75.18)"/><path class="h" d="M89.289,232.667a3.386,3.386,0,0,1,1.451,1.238,4.048,4.048,0,0,1,.669,1.728,10.759,10.759,0,0,1,.077,1.663h-6.1a1.994,1.994,0,0,0,.883,1.767,2.158,2.158,0,0,0,1.2.314,1.7,1.7,0,0,0,1.661-.962h2.231a2.7,2.7,0,0,1-.8,1.512,4.073,4.073,0,0,1-3.156,1.229,4.549,4.549,0,0,1-2.943-1.033,4.04,4.04,0,0,1-1.282-3.352,4.581,4.581,0,0,1,1.147-3.34,4.089,4.089,0,0,1,3-1.16,4.715,4.715,0,0,1,1.962.4m-3.266,1.889a2.242,2.242,0,0,0-.581,1.295h3.769a1.856,1.856,0,0,0-.581-1.322,1.952,1.952,0,0,0-1.3-.451,1.722,1.722,0,0,0-1.3.478" transform="translate(-25.613 -76.501)"/><path class="h" d="M107.646,232.547a2.347,2.347,0,0,1,.97.752,2.512,2.512,0,0,1,.48,1.07,8.157,8.157,0,0,1,.078,1.245l-.023,5.276H106.91v-5.338a1.786,1.786,0,0,0-.154-.78,1.075,1.075,0,0,0-1.072-.582,1.248,1.248,0,0,0-1.249.754,2.251,2.251,0,0,0-.179.96v4.986h-2.208V235.9a2.71,2.71,0,0,0-.156-1.09,1.072,1.072,0,0,0-1.083-.6,1.307,1.307,0,0,0-1.259.6,2.5,2.5,0,0,0-.167,1.033v5.043h-2.22v-8.361h2.119v1.223a4.009,4.009,0,0,1,.769-.934,2.669,2.669,0,0,1,1.652-.49,2.6,2.6,0,0,1,1.55.423,2.349,2.349,0,0,1,.725,1.009,2.818,2.818,0,0,1,1.071-1.085,3.155,3.155,0,0,1,1.506-.347,2.9,2.9,0,0,1,1.092.219" transform="translate(-30.219 -76.52)"/><path class="h" d="M125.687,229.284a5.275,5.275,0,0,1,7.607.472,4.008,4.008,0,0,1,.78,2.114h-2.365a3.29,3.29,0,0,0-.579-1.228,2.576,2.576,0,0,0-3.87.3,5.161,5.161,0,0,0-.724,2.952,4.492,4.492,0,0,0,.77,2.854,2.4,2.4,0,0,0,1.952.948,2.233,2.233,0,0,0,1.862-.82,3.536,3.536,0,0,0,.581-1.31h2.351a5.163,5.163,0,0,1-1.55,3.017,4.557,4.557,0,0,1-3.211,1.155,4.791,4.791,0,0,1-3.792-1.569,7.376,7.376,0,0,1,.189-8.885" transform="translate(-39.092 -75.057)"/><path class="h" d="M146.174,232.307c.02,0,.087.005.178.011v2.247c-.135-.015-.256-.027-.369-.038s-.189-.007-.258-.007a1.821,1.821,0,0,0-1.775.866,3.376,3.376,0,0,0-.255,1.489v4h-2.2V232.5h2.086v1.46a4.536,4.536,0,0,1,.881-1.149,2.425,2.425,0,0,1,1.6-.514.537.537,0,0,1,.113.007" transform="translate(-44.822 -76.511)"/><path class="h" d="M157.385,239.819a4.6,4.6,0,0,1-6.434,0,5.155,5.155,0,0,1,0-6.289,4.561,4.561,0,0,1,6.434,0,5.233,5.233,0,0,1,0,6.289m-1.759-1.209a3.167,3.167,0,0,0,.522-1.939,3.129,3.129,0,0,0-.522-1.936,1.935,1.935,0,0,0-2.946,0,3.116,3.116,0,0,0-.525,1.936,3.154,3.154,0,0,0,.525,1.939,1.935,1.935,0,0,0,2.946,0" transform="translate(-47.583 -76.478)"/><path class="h" d="M171.986,233.412a4.433,4.433,0,0,1,1.026,3.179,5.025,5.025,0,0,1-1,3.377,3.242,3.242,0,0,1-2.577,1.161,2.662,2.662,0,0,1-1.671-.507,3.01,3.01,0,0,1-.7-.8v4.362h-2.176V232.515h2.108v1.239a3.491,3.491,0,0,1,.748-.86,2.784,2.784,0,0,1,1.751-.559,3.291,3.291,0,0,1,2.5,1.077m-1.675,1.579a1.554,1.554,0,0,0-1.448-.742,1.641,1.641,0,0,0-1.652,1.121,4.26,4.26,0,0,0-.234,1.528,2.4,2.4,0,0,0,.781,2.046,1.822,1.822,0,0,0,1.1.347,1.6,1.6,0,0,0,1.4-.7,3.676,3.676,0,0,0,.044-3.6" transform="translate(-52.523 -76.522)"/><path class="h" d="M186.932,229.284a5.289,5.289,0,0,1,7.618.472,4.068,4.068,0,0,1,.769,2.114h-2.363a3.042,3.042,0,0,0-.581-1.228,2.565,2.565,0,0,0-3.86.3,5.074,5.074,0,0,0-.736,2.952,4.488,4.488,0,0,0,.769,2.854,2.43,2.43,0,0,0,1.965.948,2.2,2.2,0,0,0,1.852-.82,3.573,3.573,0,0,0,.591-1.31H195.3a5.107,5.107,0,0,1-1.55,3.017,4.531,4.531,0,0,1-3.2,1.155,4.827,4.827,0,0,1-3.8-1.569,7.474,7.474,0,0,1,.188-8.885" transform="translate(-59.272 -75.057)"/><path class="h" d="M205.8,235.786a3.319,3.319,0,0,0,.88-.19.657.657,0,0,0,.471-.624.731.731,0,0,0-.358-.706,2.241,2.241,0,0,0-1.07-.2,1.368,1.368,0,0,0-1.105.388,1.535,1.535,0,0,0-.323.762h-2.106a3.261,3.261,0,0,1,.612-1.808,3.633,3.633,0,0,1,3-1.1,5.319,5.319,0,0,1,2.453.541,2.1,2.1,0,0,1,1.072,2.065v3.834c0,.269.013.587.023.972a1.221,1.221,0,0,0,.123.581.754.754,0,0,0,.323.251v.33h-2.377a1.829,1.829,0,0,1-.145-.475c-.021-.149-.044-.323-.056-.506a4.777,4.777,0,0,1-1.06.83,3.136,3.136,0,0,1-1.594.41,2.776,2.776,0,0,1-1.9-.65,2.329,2.329,0,0,1-.747-1.842,2.394,2.394,0,0,1,1.2-2.237,5.366,5.366,0,0,1,1.928-.534Zm1.338,1.026a2.992,2.992,0,0,1-.411.211,4.181,4.181,0,0,1-.592.146l-.5.1a3.078,3.078,0,0,0-1,.3,1,1,0,0,0-.514.93.955.955,0,0,0,.313.8,1.17,1.17,0,0,0,.77.252,2.29,2.29,0,0,0,1.314-.412,1.72,1.72,0,0,0,.625-1.512Z" transform="translate(-64.722 -76.514)"/><path class="h" d="M220.455,232.307c.021,0,.089.005.178.011v2.247c-.135-.015-.258-.027-.37-.038s-.189-.007-.256-.007a1.819,1.819,0,0,0-1.773.866,3.354,3.354,0,0,0-.256,1.489v4h-2.209V232.5h2.1v1.46a4.551,4.551,0,0,1,.881-1.149,2.42,2.42,0,0,1,1.594-.514.534.534,0,0,1,.113.007" transform="translate(-69.284 -76.511)"/><path class="h" d="M230.065,232.667a3.365,3.365,0,0,1,1.45,1.238,4.067,4.067,0,0,1,.669,1.728,11.123,11.123,0,0,1,.066,1.663h-6.088a1.985,1.985,0,0,0,.881,1.767,2.163,2.163,0,0,0,1.2.314,1.687,1.687,0,0,0,1.66-.962h2.232a2.709,2.709,0,0,1-.8,1.512,4.079,4.079,0,0,1-3.158,1.229,4.547,4.547,0,0,1-2.943-1.033,4.042,4.042,0,0,1-1.284-3.352,4.588,4.588,0,0,1,1.149-3.34,4.086,4.086,0,0,1,3-1.16,4.72,4.72,0,0,1,1.964.4m-3.267,1.889a2.24,2.24,0,0,0-.583,1.295h3.771a1.832,1.832,0,0,0-.592-1.322,1.905,1.905,0,0,0-1.294-.451,1.721,1.721,0,0,0-1.3.478" transform="translate(-71.978 -76.501)"/></g></svg>