<svg xmlns="http://www.w3.org/2000/svg" width="19.877" height="18.22" viewBox="0 0 19.877 18.22"><defs><style>.a{fill:#0558ac;}</style></defs><path class="a" d="M20.314,16.146A.822.822,0,0,0,19.2,16.3l-.286.374c-.025-.13-.053-.261-.083-.389A9.159,9.159,0,1,0,10.168,27.5a9.261,9.261,0,0,0,1.87-.246A9.017,9.017,0,0,0,16.5,24.692l.043-.038a.238.238,0,0,0,.058-.08l.04-.055a.689.689,0,0,0,.1-.369A.712.712,0,0,0,16,23.461a.68.68,0,0,0-.281.068l-.045-.028-.191.2a7.605,7.605,0,1,1,1.91-7.012c.01.048.023.1.033.143l-.321-.241a.822.822,0,0,0-1.118.153.789.789,0,0,0,.153,1.108l1.825,1.374.01.008.083.06h.015a.893.893,0,0,0,.484.083.8.8,0,0,0,.539-.308l1.381-1.815a.8.8,0,0,0-.16-1.108Z" transform="translate(-0.752 -9.288)"/><path class="a" d="M40.891,55.34h1.169V53.733h1.291V55.34h.967v1.187h-.967v.663a14.527,14.527,0,0,1,1.353.87l-.733,1.017c-.2-.194-.409-.377-.619-.552v4.128H42.061v-3.73a11.314,11.314,0,0,1-.975,1.815q-.124-.59-.385-1.668a9.676,9.676,0,0,0,1.252-2.54h-1.06Zm3.306,4.3H46.78V58.55H44.806V57.463H46.78V56.408H44.614V55.321h1.4q-.387-.558-.813-1.081l.986-.59c.353.382.723.8,1.108,1.27l-.656.4h1.236c.409-.588.771-1.14,1.079-1.659l1.212.481q-.43.622-.845,1.18h1.159v1.088H48.2V57.46H50.3v1.088H48.2v1.088h2.665v1.088H48.2v1.922H46.78V60.723H44.2Z" transform="translate(-36.918 -48.935)"/></svg>